HIERARCHY
ROOT joint_0
{
	OFFSET 0.000000 0.000000 0.000000
	CHANNELS 6 Xposition Yposition Zposition Zrotation Yrotation Xrotation 
	JOINT joint_1
	{
		OFFSET 14.113007 -2.961990 123.953979
		CHANNELS 3 Zrotation Yrotation Xrotation
		JOINT joint_2
		{
			OFFSET 0.764000 -2.434006 113.871948
			CHANNELS 3 Zrotation Yrotation Xrotation
			JOINT joint_3
			{
				OFFSET 0.186996 -2.169998 113.753052
				CHANNELS 3 Zrotation Yrotation Xrotation
				JOINT joint_4
				{
					OFFSET 16.096001 -2.720001 160.853027
					CHANNELS 3 Zrotation Yrotation Xrotation
					JOINT joint_5
					{
						OFFSET 34.392006 -0.188995 92.567017
						CHANNELS 3 Zrotation Yrotation Xrotation
						End Site
						{
							OFFSET 0.000000 0.000000 0.000000
						}
					}
				}
				JOINT joint_6
				{
					OFFSET 9.183998 -36.684006 89.597046
					CHANNELS 3 Zrotation Yrotation Xrotation
					JOINT joint_7
					{
						OFFSET 0.486000 -164.365997 -28.984009
						CHANNELS 3 Zrotation Yrotation Xrotation
						JOINT joint_8
						{
							OFFSET 38.899002 -34.967010 -291.651978
							CHANNELS 3 Zrotation Yrotation Xrotation
							JOINT joint_9
							{
								OFFSET 41.714005 -45.890991 -258.857056
								CHANNELS 3 Zrotation Yrotation Xrotation
								End Site
								{
									OFFSET 0.000000 0.000000 0.000000
								}
							}
						}
					}
				}
				JOINT joint_10
				{
					OFFSET 8.867004 33.650002 90.817993
					CHANNELS 3 Zrotation Yrotation Xrotation
					JOINT joint_11
					{
						OFFSET 0.018997 164.299999 -29.368042
						CHANNELS 3 Zrotation Yrotation Xrotation
						JOINT joint_12
						{
							OFFSET 29.440994 30.887997 -293.216919
							CHANNELS 3 Zrotation Yrotation Xrotation
							JOINT joint_13
							{
								OFFSET 46.174011 54.490005 -256.422058
								CHANNELS 3 Zrotation Yrotation Xrotation
								End Site
								{
									OFFSET 0.000000 0.000000 0.000000
								}
							}
						}
					}
				}
			}
		}
	}
	JOINT joint_14
	{
		OFFSET -2.264000 -89.466995 -116.150024
		CHANNELS 3 Zrotation Yrotation Xrotation
		JOINT joint_15
		{
			OFFSET -16.400993 -17.452988 -493.781982
			CHANNELS 3 Zrotation Yrotation Xrotation
			JOINT joint_16
			{
				OFFSET -50.497004 -13.404022 -424.754013
				CHANNELS 3 Zrotation Yrotation Xrotation
				JOINT joint_17
				{
					OFFSET 198.546007 -19.341003 -89.309000
					CHANNELS 3 Zrotation Yrotation Xrotation
					End Site
					{
						OFFSET 0.000000 0.000000 0.000000
					}
				}
			}
		}
	}
	JOINT joint_18
	{
		OFFSET -0.867996 96.016006 -110.817993
		CHANNELS 3 Zrotation Yrotation Xrotation
		JOINT joint_19
		{
			OFFSET -10.130997 24.658998 -493.645020
			CHANNELS 3 Zrotation Yrotation Xrotation
			JOINT joint_20
			{
				OFFSET -48.871004 19.434999 -424.714005
				CHANNELS 3 Zrotation Yrotation Xrotation
				JOINT joint_21
				{
					OFFSET 195.579996 24.926001 -94.327003
					CHANNELS 3 Zrotation Yrotation Xrotation
					End Site
					{
						OFFSET 0.000000 0.000000 0.000000
					}
				}
			}
		}
	}
}
MOTION
Frames: 13
Frame Time: 0.016667
-2848.166748 916.905212 1143.946045 4.320006 -4.135851 -1.231713 0.030146 0.022056 1.822480 0.041210 -0.007917 -0.380905 0.040942 0.021875 0.277449 -0.401992 1.324618 1.079073 0.000000 0.000000 0.000000 0.994546 1.006353 -0.082444 -0.135739 1.204508 -0.554403 0.208899 -1.516784 -0.381841 0.000000 0.000000 0.000000 1.390414 -0.991596 -0.674656 0.420302 -1.162083 1.323607 0.899217 2.358900 2.308220 0.000000 0.000000 0.000000 3.277014 1.532685 3.091494 3.322984 2.961637 0.526954 3.511316 -4.177869 1.163191 0.000000 0.000000 0.000000 -2.619630 1.207028 -1.776191 -2.643482 1.254962 -0.253099 -2.727499 -2.341958 -1.007226 0.000000 0.000000 0.000000 
-2848.128662 916.880493 1143.902954 4.326281 -4.136240 -1.229279 0.028977 0.036704 1.824375 0.039665 -0.010215 -0.380610 0.039527 0.026730 0.276823 -0.399766 1.317978 1.073229 0.000000 0.000000 0.000000 1.006550 0.990266 -0.043691 -0.141331 1.191220 -0.602215 0.205563 -1.506844 -0.391795 0.000000 0.000000 0.000000 1.395432 -0.988300 -0.723819 0.424506 -1.159052 1.373318 0.896890 2.354189 2.300445 0.000000 0.000000 0.000000 3.275290 1.527579 3.091381 3.320593 2.976328 0.526338 3.509485 -4.172882 1.162846 0.000000 0.000000 0.000000 -2.622149 1.200392 -1.781462 -2.645151 1.270321 -0.245778 -2.728626 -2.336778 -1.008437 0.000000 0.000000 0.000000 
-2848.088135 916.853027 1143.863037 4.332427 -4.135712 -1.226430 0.027480 0.049514 1.827440 0.037868 -0.012163 -0.381626 0.037846 0.031304 0.277162 -0.396619 1.310677 1.064933 0.000000 0.000000 0.000000 1.018661 0.975698 -0.006576 -0.146835 1.179458 -0.649666 0.203231 -1.498999 -0.397816 0.000000 0.000000 0.000000 1.400103 -0.984289 -0.772490 0.428884 -1.155221 1.422826 0.894772 2.350450 2.292712 0.000000 0.000000 0.000000 3.273440 1.523781 3.090970 3.318294 2.986433 0.525326 3.507372 -4.165500 1.162612 0.000000 0.000000 0.000000 -2.624385 1.193476 -1.785853 -2.646541 1.284150 -0.240569 -2.729563 -2.329919 -1.009772 0.000000 0.000000 0.000000 
-2848.034668 916.818054 1143.826050 4.340174 -4.134450 -1.223197 0.026245 0.059748 1.829667 0.036366 -0.014803 -0.382059 0.036460 0.035211 0.277577 -0.392884 1.304723 1.055072 0.000000 0.000000 0.000000 1.025560 0.964160 0.028291 -0.152094 1.169775 -0.696568 0.202868 -1.494476 -0.395270 0.000000 0.000000 0.000000 1.399742 -0.978492 -0.818833 0.433697 -1.148622 1.471031 0.893194 2.349162 2.285182 0.000000 0.000000 0.000000 3.270630 1.524894 3.090835 3.315622 2.986752 0.523162 3.504209 -4.156237 1.162098 0.000000 0.000000 0.000000 -2.626896 1.186493 -1.788054 -2.648104 1.297313 -0.239709 -2.731117 -2.322872 -1.011426 0.000000 0.000000 0.000000 
-2847.977783 916.780457 1143.791992 4.348169 -4.132243 -1.219736 0.024483 0.067443 1.833504 0.034450 -0.016027 -0.383552 0.034622 0.038409 0.277881 -0.388480 1.297654 1.043421 0.000000 0.000000 0.000000 1.031736 0.953914 0.062337 -0.157269 1.161245 -0.743243 0.203420 -1.491510 -0.388762 0.000000 0.000000 0.000000 1.399340 -0.972031 -0.864028 0.438699 -1.141322 1.519111 0.891863 2.349354 2.277321 0.000000 0.000000 0.000000 3.267498 1.527484 3.090722 3.312884 2.982174 0.520293 3.500558 -4.144523 1.161606 0.000000 0.000000 0.000000 -2.629048 1.178999 -1.789268 -2.649271 1.309379 -0.240998 -2.732422 -2.314638 -1.013113 0.000000 0.000000 0.000000 
-2847.929932 916.741821 1143.758057 4.353404 -4.129229 -1.214854 0.023371 0.075144 1.835820 0.033152 -0.017865 -0.383848 0.033426 0.042298 0.278088 -0.384274 1.288613 1.032286 0.000000 0.000000 0.000000 1.039152 0.944956 0.095687 -0.162335 1.154203 -0.790597 0.205513 -1.492835 -0.377401 0.000000 0.000000 0.000000 1.401539 -0.966592 -0.909332 0.443073 -1.135635 1.568269 0.889288 2.345988 2.266371 0.000000 0.000000 0.000000 3.265646 1.527353 3.089130 3.311185 2.979681 0.517278 3.497950 -4.132291 1.161633 0.000000 0.000000 0.000000 -2.630743 1.172955 -1.792581 -2.650422 1.315589 -0.240561 -2.733042 -2.302644 -1.014951 0.000000 0.000000 0.000000 
-2847.897949 916.708374 1143.725952 4.353185 -4.125264 -1.208423 0.023796 0.083764 1.838918 0.033377 -0.019830 -0.384594 0.033741 0.045389 0.278004 -0.380435 1.277609 1.022116 0.000000 0.000000 0.000000 1.048101 0.937792 0.128000 -0.167322 1.149209 -0.839903 0.210013 -1.500593 -0.358168 0.000000 0.000000 0.000000 1.407264 -0.962329 -0.955559 0.446530 -1.131939 1.619422 0.884739 2.336545 2.251078 0.000000 0.000000 0.000000 3.266125 1.521909 3.085040 3.311248 2.982911 0.515622 3.497481 -4.120600 1.162559 0.000000 0.000000 0.000000 -2.631302 1.170030 -1.799641 -2.651248 1.311974 -0.235724 -2.732129 -2.285541 -1.016706 0.000000 0.000000 0.000000 
-2847.872803 916.676086 1143.696045 4.351032 -4.120085 -1.200715 0.024563 0.090801 1.841391 0.033997 -0.021155 -0.384982 0.034448 0.048876 0.278177 -0.376691 1.264243 1.012185 0.000000 0.000000 0.000000 1.057478 0.931796 0.159888 -0.172290 1.145454 -0.890536 0.215981 -1.512038 -0.333859 0.000000 0.000000 0.000000 1.415399 -0.958856 -1.003034 0.449423 -1.129582 1.672885 0.878751 2.323246 2.231936 0.000000 0.000000 0.000000 3.267535 1.513628 3.079371 3.311991 2.987966 0.514121 3.497712 -4.107601 1.163926 0.000000 0.000000 0.000000 -2.631400 1.168198 -1.809007 -2.652046 1.302475 -0.228858 -2.730473 -2.264490 -1.018607 0.000000 0.000000 0.000000 
-2847.849609 916.633484 1143.657959 4.350148 -4.115979 -1.191818 0.024899 0.099143 1.841367 0.034111 -0.023429 -0.385824 0.034670 0.052809 0.279043 -0.373262 1.252107 1.003088 0.000000 0.000000 0.000000 1.066493 0.925709 0.194124 -0.177333 1.141550 -0.939433 0.220612 -1.519972 -0.313989 0.000000 0.000000 0.000000 1.422900 -0.955545 -1.048238 0.452002 -1.127330 1.725649 0.872249 2.308563 2.211425 0.000000 0.000000 0.000000 3.268559 1.507155 3.073787 3.312523 2.991717 0.510969 3.497439 -4.093743 1.165152 0.000000 0.000000 0.000000 -2.631678 1.166724 -1.818612 -2.652970 1.294017 -0.223140 -2.729149 -2.244085 -1.020585 0.000000 0.000000 0.000000 
-2847.820068 916.578552 1143.614990 4.352981 -4.112923 -1.181695 0.024384 0.106620 1.836890 0.033360 -0.025031 -0.384106 0.034020 0.056672 0.277844 -0.370624 1.241355 0.996098 0.000000 0.000000 0.000000 1.072355 0.919028 0.234336 -0.182693 1.136533 -0.986613 0.222492 -1.520172 -0.302700 0.000000 0.000000 0.000000 1.427090 -0.951451 -1.090327 0.454414 -1.123724 1.778935 0.864922 2.291942 2.188362 0.000000 0.000000 0.000000 3.268143 1.504532 3.068747 3.312025 2.991204 0.505277 3.495554 -4.077029 1.165937 0.000000 0.000000 0.000000 -2.632593 1.166298 -1.827894 -2.654520 1.285712 -0.219744 -2.728728 -2.224383 -1.022909 0.000000 0.000000 0.000000 
-2847.790527 916.515625 1143.564941 4.357588 -4.110646 -1.170331 0.023627 0.114154 1.830868 0.032363 -0.026530 -0.383730 0.033127 0.060813 0.276683 -0.369141 1.230159 0.992176 0.000000 0.000000 0.000000 1.075576 0.912347 0.277827 -0.188152 1.131057 -1.032606 0.223104 -1.516906 -0.295472 0.000000 0.000000 0.000000 1.429176 -0.947481 -1.129949 0.456513 -1.119922 1.832180 0.856862 2.273519 2.163145 0.000000 0.000000 0.000000 3.267173 1.503687 3.063345 3.311123 2.989056 0.498417 3.493010 -4.058999 1.166558 0.000000 0.000000 0.000000 -2.633946 1.166131 -1.837651 -2.656474 1.278111 -0.217309 -2.728835 -2.204783 -1.025473 0.000000 0.000000 0.000000 
-2847.770508 916.448486 1143.500977 4.361536 -4.108561 -1.158177 0.022300 0.122695 1.824244 0.030723 -0.030104 -0.383261 0.031663 0.066907 0.275477 -0.368498 1.220276 0.990494 0.000000 0.000000 0.000000 1.080737 0.905813 0.321853 -0.193571 1.126057 -1.079224 0.224447 -1.515872 -0.286153 0.000000 0.000000 0.000000 1.432728 -0.944264 -1.171699 0.458678 -1.117128 1.887757 0.848699 2.254438 2.138138 0.000000 0.000000 0.000000 3.266461 1.501488 3.056643 3.310274 2.988507 0.492847 3.490688 -4.039286 1.167435 0.000000 0.000000 0.000000 -2.634965 1.160633 -1.847850 -2.657338 1.279917 -0.215783 -2.728379 -2.184374 -1.027869 0.000000 0.000000 0.000000 
-2847.762207 916.377991 1143.421021 4.366360 -4.102174 -1.138328 0.018822 0.125134 1.809909 0.027035 -0.034227 -0.385403 0.028157 0.073110 0.276443 -0.370337 1.215493 0.995437 0.000000 0.000000 0.000000 1.089740 0.899112 0.372316 -0.200032 1.121697 -1.134064 0.226686 -1.513743 -0.270109 0.000000 0.000000 0.000000 1.440810 -0.941076 -1.212962 0.461071 -1.115136 1.943820 0.841125 2.237015 2.114614 0.000000 0.000000 0.000000 3.266097 1.492826 3.040183 3.308933 2.990760 0.489693 3.488314 -4.019098 1.168333 0.000000 0.000000 0.000000 -2.636678 1.141122 -1.865990 -2.657519 1.296968 -0.215303 -2.728014 -2.162976 -1.030432 0.000000 0.000000 0.000000 
